# xmcd CD database file
#
# Track frame offsets:
#	150
#	15417
#	32922
#	54017
#	76607
#	93725
#	111462
#	125465
#	142535
#	157200
#	179500
#	199855
#
# Disc length: 2918 seconds
#
# Revision: 6
# Processed by: cddbd v1.5.2PL0 Copyright (c) Steve Scherf et al.
# Submitted via: CDex 1.51
#
DISCID=960b640c
DTITLE=Various Artist - The Horse Whisperer
DYEAR=1998
DGENRE=Soundtrack
TTITLE0=Dwight Yoakam - Cattle Call
TTITLE1=Allison Moorer - A Soft Place To Fall
TTITLE2=The Flatlanders - South Wind Of Summer
TTITLE3=Lucinda Williams - Still I Long For Your Kiss
TTITLE4=The Mavericks - Dream River
TTITLE5=Emmylou Harris - Slow Surprise
TTITLE6=Don Walser - Big Ball's In Cowtown
TTITLE7=Gillian Welch - Leaving Train
TTITLE8=Don Edwards - Cowboy Love Song
TTITLE9=Steve Earle - Me And The Eagle
TTITLE10=Iris DeMent - Whispering Pines
TTITLE11=George Strait - Red River Valley
EXTD=YEAR: 1998
EXTT0=
EXTT1=
EXTT2=
EXTT3=
EXTT4=
EXTT5=
EXTT6=
EXTT7=
EXTT8=
EXTT9=
EXTT10=
EXTT11=
PLAYORDER=
